<?xml version="1.0" standalone="no"?>
<!DOCTYPE svg PUBLIC "-//W3C//DTD SVG 20010904//EN"
 "http://www.w3.org/TR/2001/REC-SVG-20010904/DTD/svg10.dtd">
<svg version="1.0" xmlns="http://www.w3.org/2000/svg"
 width="512.000000pt" height="512.000000pt" viewBox="0 0 512.000000 512.000000"
 preserveAspectRatio="xMidYMid meet">

<g transform="translate(0.000000,512.000000) scale(0.100000,-0.100000)"
fill="#000000" stroke="none">
<path d="M3200 5100 c-465 -99 -857 -505 -1050 -1087 -44 -135 -90 -328 -104
-444 l-5 -46 97 -32 c278 -92 554 -245 811 -451 62 -50 114 -90 115 -88 31 73
105 204 151 273 34 50 87 128 119 174 146 214 231 454 257 726 31 315 -56 675
-227 943 -39 60 -38 59 -164 32z"/>
<path d="M3710 5067 c0 -2 15 -37 34 -78 118 -256 173 -585 148 -876 -33 -374
-141 -652 -388 -995 -76 -107 -135 -212 -179 -320 l-33 -81 86 -106 c161 -199
301 -435 397 -668 48 -120 108 -317 120 -396 4 -26 12 -50 17 -53 14 -9 111
54 212 137 270 225 487 595 586 1001 57 232 65 309 65 608 0 301 -12 397 -74
636 -117 444 -365 829 -673 1042 -104 71 -318 172 -318 149z"/>
<path d="M1315 3293 c-129 -17 -287 -62 -379 -110 l-39 -20 67 -23 c90 -30
271 -122 371 -189 239 -160 451 -390 586 -635 108 -195 170 -379 214 -636 30
-176 63 -294 117 -418 192 -438 593 -771 1056 -876 l63 -14 43 54 c166 212
251 551 217 869 -50 470 -270 914 -641 1298 -372 384 -815 624 -1281 692 -96
13 -316 18 -394 8z"/>
<path d="M551 2863 c-82 -111 -141 -242 -182 -408 -27 -105 -37 -364 -19 -501
105 -845 851 -1673 1708 -1895 280 -72 540 -77 778 -14 102 27 239 84 227 95
-4 4 -26 13 -48 20 -77 23 -321 151 -410 215 -393 282 -659 689 -745 1138 -11
59 -29 153 -40 210 -27 144 -61 243 -130 382 -198 397 -544 681 -970 797 -58
15 -108 28 -113 28 -4 0 -29 -30 -56 -67z"/>
</g>
</svg>
